<svg width="64" height="64" viewBox="0 0 64 64" fill="none" xmlns="http://www.w3.org/2000/svg">
<rect width="64" height="64" rx="4" fill="#555555"/>
<path d="M44.0039 13.9941H19.9979C18.4067 13.9989 16.882 14.6333 15.757 15.7586C14.632 16.884 13.9981 18.4089 13.9939 20.0001V44.0041C13.9997 45.5945 14.6342 47.1181 15.759 48.2425C16.8837 49.3669 18.4075 50.0009 19.9979 50.0061H44.0039C45.5939 50.0003 47.1172 49.3661 48.2415 48.2418C49.3659 47.1175 50.0001 45.5942 50.0059 44.0041V20.0001C50.0012 18.4094 49.3674 16.8851 48.243 15.7599C47.1185 14.6347 45.5946 13.9999 44.0039 13.9941V13.9941ZM40.7239 39.2881C40.4199 40.0081 39.9459 40.6481 39.3379 41.1421C38.6189 41.7005 37.8004 42.1172 36.9259 42.3701C35.9459 42.6721 34.7779 42.8281 33.4259 42.8281H23.7759V21.8181H33.9819C35.8679 21.8181 37.3819 22.2441 38.5159 23.1101C39.6539 23.9821 40.2239 25.2741 40.2239 27.0261C40.2239 28.0821 39.9639 28.9921 39.4459 29.7401C38.9279 30.4861 38.1859 31.0681 37.2239 31.4761V31.5441C38.5079 31.8141 39.4979 32.4201 40.1519 33.3681C40.8059 34.3141 41.1379 35.5061 41.1379 36.9461C41.1379 37.7561 40.9819 38.5221 40.6879 39.2401L40.7279 39.2821V39.2881H40.7239ZM36.5559 34.1101C35.9379 33.5461 35.0779 33.2721 33.9619 33.2721H27.4739V39.8241H33.9799C35.0879 39.8241 35.9619 39.5361 36.5759 38.9541C37.1919 38.3761 37.5039 37.5521 37.5039 36.4961C37.4939 35.4601 37.1919 34.6581 36.5759 34.1101H36.5479H36.5559V34.1101ZM35.6539 29.8721C36.2519 29.3701 36.5419 28.6461 36.5419 27.7041C36.5419 26.6521 36.2799 25.9001 35.7479 25.4721C35.2199 25.0441 34.4559 24.8201 33.4559 24.8201H27.4539V30.6161H33.4559C34.3279 30.6181 35.0759 30.3621 35.6539 29.8721V29.8721Z" fill="#F5F5F5"/>
</svg>
