<svg width="64" height="64" viewBox="0 0 64 64" fill="none" xmlns="http://www.w3.org/2000/svg">
<rect width="64" height="64" rx="4" fill="#555555"/>
<path d="M51.24 30.2161L33.778 12.7581C33.2937 12.276 32.6383 12.0054 31.955 12.0054C31.2717 12.0054 30.6163 12.276 30.132 12.7581L26.514 16.3801L31.112 20.9801C31.6545 20.7967 32.2375 20.7691 32.7949 20.9003C33.3523 21.0316 33.8618 21.3163 34.2655 21.7224C34.6693 22.1284 34.9512 22.6395 35.0792 23.1976C35.2073 23.7558 35.1764 24.3386 34.99 24.8801L39.418 29.3141C40.0736 29.084 40.7879 29.0839 41.4436 29.3138C42.0992 29.5437 42.6571 29.9898 43.0255 30.5788C43.3939 31.1679 43.5509 31.8648 43.4707 32.5549C43.3904 33.245 43.0777 33.8873 42.584 34.3761C41.386 35.5761 39.452 35.5761 38.252 34.3761C37.8258 33.9493 37.5346 33.4066 37.4147 32.8155C37.2948 32.2244 37.3516 31.6111 37.578 31.0521L33.43 26.9261V37.8001C33.722 37.9421 34.002 38.1381 34.244 38.3801C34.8158 38.9559 35.1367 39.7345 35.1367 40.5461C35.1367 41.3576 34.8158 42.1362 34.244 42.7121C33.9587 42.9978 33.6198 43.2246 33.2468 43.3793C32.8737 43.534 32.4738 43.6136 32.07 43.6136C31.6662 43.6136 31.2663 43.534 30.8932 43.3793C30.5202 43.2246 30.1813 42.9978 29.896 42.7121C29.6113 42.4282 29.3854 42.0909 29.2313 41.7195C29.0772 41.3482 28.9978 40.9501 28.9978 40.5481C28.9978 40.146 29.0772 39.7479 29.2313 39.3766C29.3854 39.0052 29.6113 38.6679 29.896 38.3841C30.2 38.0841 30.54 37.8561 30.904 37.7061V26.7261C30.5301 26.573 30.1902 26.3473 29.904 26.062C29.6177 25.7768 29.3909 25.4376 29.2366 25.0642C29.0822 24.6908 29.0034 24.2905 29.0047 23.8864C29.0059 23.4823 29.0873 23.0825 29.244 22.7101L24.724 18.1681L12.75 30.1321C11.75 31.1401 11.75 32.7721 12.75 33.7801L30.212 51.2381C30.4509 51.4776 30.7347 51.6676 31.0472 51.7973C31.3597 51.927 31.6947 51.9937 32.033 51.9937C32.3713 51.9937 32.7063 51.927 33.0188 51.7973C33.3313 51.6676 33.6151 51.4776 33.854 51.2381L51.234 33.8601C51.4747 33.6218 51.6659 33.3382 51.7966 33.0257C51.9272 32.7132 51.9948 32.378 51.9953 32.0393C51.9959 31.7006 51.9294 31.3651 51.7998 31.0522C51.6702 30.7393 51.4799 30.4551 51.24 30.2161" fill="#F5F5F5"/>
</svg>
