<svg width="64" height="64" viewBox="0 0 64 64" fill="none" xmlns="http://www.w3.org/2000/svg">
<rect width="64" height="64" rx="4" fill="#555555"/>
<path fill-rule="evenodd" clip-rule="evenodd" d="M32.052 12C21.034 12 12.104 20.93 12.104 31.948C12.104 40.76 17.818 48.238 25.746 50.878C26.744 51.058 27.104 50.444 27.104 49.916C27.104 49.442 27.088 48.186 27.082 46.524C21.532 47.728 20.36 43.848 20.36 43.848C19.456 41.544 18.146 40.93 18.146 40.93C16.336 39.692 18.284 39.72 18.284 39.72C20.288 39.86 21.338 41.776 21.338 41.776C23.118 44.824 26.01 43.944 27.142 43.434C27.324 42.144 27.844 41.264 28.412 40.766C23.984 40.264 19.328 38.552 19.328 30.906C19.328 28.732 20.106 26.948 21.376 25.556C21.174 25.05 20.484 23.02 21.574 20.276C21.574 20.276 23.248 19.738 27.058 22.318C28.6852 21.8753 30.3637 21.6494 32.05 21.646C33.7364 21.6487 35.4149 21.8747 37.042 22.318C40.854 19.736 42.526 20.276 42.526 20.276C43.616 23.02 42.932 25.05 42.724 25.556C44.004 26.948 44.772 28.73 44.772 30.906C44.772 38.572 40.112 40.256 35.668 40.75C36.378 41.366 37.018 42.582 37.018 44.442C37.018 47.11 36.994 49.262 36.994 49.916C36.994 50.45 37.35 51.07 38.368 50.874C46.292 48.23 52 40.758 52 31.948C52 20.93 43.07 12 32.052 12Z" fill="#F5F5F5"/>
</svg>
