<svg width="64" height="64" viewBox="0 0 64 64" fill="none" xmlns="http://www.w3.org/2000/svg">
<rect width="64" height="64" rx="4" fill="#555555"/>
<path d="M31.998 22.7539C29.5453 22.7539 27.193 23.7282 25.4587 25.4626C23.7243 27.1969 22.75 29.5492 22.75 32.0019C22.75 34.4546 23.7243 36.8069 25.4587 38.5412C27.193 40.2756 29.5453 41.2499 31.998 41.2499C34.4507 41.2499 36.803 40.2756 38.5373 38.5412C40.2717 36.8069 41.246 34.4546 41.246 32.0019C41.246 29.5492 40.2717 27.1969 38.5373 25.4626C36.803 23.7282 34.4507 22.7539 31.998 22.7539V22.7539ZM31.998 38.0079C30.4046 38.0079 28.8764 37.3749 27.7497 36.2482C26.623 35.1215 25.99 33.5933 25.99 31.9999C25.99 30.4065 26.623 28.8783 27.7497 27.7516C28.8764 26.6249 30.4046 25.9919 31.998 25.9919C33.5914 25.9919 35.1196 26.6249 36.2463 27.7516C37.373 28.8783 38.006 30.4065 38.006 31.9999C38.006 33.5933 37.373 35.1215 36.2463 36.2482C35.1196 37.3749 33.5914 38.0079 31.998 38.0079V38.0079Z" fill="#F5F5F5"/>
<path d="M41.6121 24.5698C42.8028 24.5698 43.7681 23.6045 43.7681 22.4138C43.7681 21.2231 42.8028 20.2578 41.6121 20.2578C40.4213 20.2578 39.4561 21.2231 39.4561 22.4138C39.4561 23.6045 40.4213 24.5698 41.6121 24.5698Z" fill="#F5F5F5"/>
<path d="M49.066 20.2218C48.603 19.0261 47.8955 17.9403 46.9887 17.0339C46.0819 16.1274 44.9958 15.4203 43.8 14.9578C42.4007 14.4325 40.9224 14.1484 39.428 14.1178C37.502 14.0338 36.892 14.0098 32.008 14.0098C27.124 14.0098 26.498 14.0098 24.588 14.1178C23.0948 14.1469 21.6175 14.431 20.22 14.9578C19.0239 15.4198 17.9376 16.1267 17.0307 17.0332C16.1238 17.9397 15.4165 19.0258 14.954 20.2218C14.4286 21.621 14.1453 23.0994 14.116 24.5938C14.03 26.5178 14.004 27.1278 14.004 32.0138C14.004 36.8978 14.004 37.5198 14.116 39.4338C14.146 40.9298 14.428 42.4058 14.954 43.8078C15.4178 45.0033 16.1258 46.0889 17.0329 46.9953C17.94 47.9017 19.0262 48.6089 20.222 49.0718C21.6169 49.6182 23.0948 49.9225 24.592 49.9718C26.518 50.0558 27.128 50.0818 32.012 50.0818C36.896 50.0818 37.522 50.0818 39.432 49.9718C40.9262 49.9414 42.4045 49.658 43.804 49.1338C44.9995 48.6701 46.0853 47.9624 46.992 47.0557C47.8987 46.149 48.6064 45.0633 49.07 43.8678C49.596 42.4678 49.878 40.9918 49.908 39.4958C49.994 37.5718 50.02 36.9618 50.02 32.0758C50.02 27.1898 50.02 26.5698 49.908 24.6558C49.8847 23.1403 49.5999 21.6403 49.066 20.2218V20.2218ZM46.63 39.2858C46.6171 40.4384 46.4067 41.5802 46.008 42.6618C45.7077 43.4395 45.2479 44.1458 44.6582 44.7351C44.0685 45.3245 43.3619 45.7839 42.584 46.0838C41.5145 46.4807 40.3847 46.691 39.244 46.7058C37.344 46.7938 36.808 46.8158 31.936 46.8158C27.06 46.8158 26.562 46.8158 24.626 46.7058C23.4859 46.6918 22.3567 46.4814 21.288 46.0838C20.5074 45.7857 19.798 45.3272 19.2058 44.7377C18.6136 44.1482 18.1517 43.441 17.85 42.6618C17.4569 41.5919 17.2467 40.4634 17.228 39.3238C17.142 37.4238 17.122 36.8878 17.122 32.0158C17.122 27.1418 17.122 26.6438 17.228 24.7058C17.241 23.5538 17.4513 22.4126 17.85 21.3318C18.46 19.7538 19.71 18.5118 21.288 17.9078C22.3572 17.512 23.4861 17.3017 24.626 17.2858C26.528 17.1998 27.062 17.1758 31.936 17.1758C36.81 17.1758 37.31 17.1758 39.244 17.2858C40.3848 17.2995 41.5147 17.5099 42.584 17.9078C43.3619 18.2083 44.0683 18.6682 44.658 19.2578C45.2476 19.8475 45.7075 20.5539 46.008 21.3318C46.4011 22.4017 46.6114 23.5301 46.63 24.6698C46.716 26.5718 46.738 27.1058 46.738 31.9798C46.738 36.8518 46.738 37.3758 46.652 39.2878H46.63V39.2858Z" fill="#F5F5F5"/>
</svg>
