<svg width="64" height="64" viewBox="0 0 64 64" fill="none" xmlns="http://www.w3.org/2000/svg">
<rect width="64" height="64" rx="4" fill="#555555"/>
<path d="M14 14H50V50H14V14ZM47.05 41.414C46.788 39.772 45.718 38.392 42.546 37.104C41.442 36.586 40.216 36.228 39.848 35.396C39.712 34.9 39.692 34.632 39.78 34.338C40.006 33.37 41.154 33.08 42.054 33.348C42.64 33.528 43.18 33.978 43.518 34.7C45.068 33.686 45.068 33.686 46.15 33.012C45.744 32.384 45.542 32.11 45.272 31.84C44.326 30.784 43.066 30.244 41.02 30.29L39.964 30.424C38.95 30.672 37.982 31.214 37.398 31.932C35.688 33.868 36.182 37.242 38.252 38.64C40.298 40.17 43.294 40.506 43.676 41.946C44.036 43.702 42.372 44.264 40.726 44.062C39.512 43.79 38.836 43.184 38.094 42.058L35.35 43.634C35.664 44.352 36.024 44.668 36.564 45.298C39.174 47.93 45.7 47.796 46.87 43.79C46.912 43.656 47.23 42.734 46.982 41.316L47.05 41.414V41.414ZM33.576 30.546H30.204C30.204 33.452 30.19 36.342 30.19 39.254C30.19 41.102 30.284 42.798 29.982 43.32C29.488 44.354 28.21 44.222 27.632 44.038C27.038 43.746 26.736 43.34 26.386 42.756C26.292 42.6 26.222 42.464 26.196 42.464L23.46 44.152C23.918 45.098 24.586 45.91 25.448 46.426C26.73 47.192 28.452 47.44 30.256 47.036C31.432 46.696 32.446 45.998 32.972 44.918C33.74 43.524 33.576 41.812 33.57 39.9C33.586 36.818 33.57 33.734 33.57 30.63L33.576 30.546Z" fill="#F5F5F5"/>
</svg>
