<svg width="64" height="64" viewBox="0 0 64 64" fill="none" xmlns="http://www.w3.org/2000/svg">
<rect width="64" height="64" rx="4" fill="#555555"/>
<path d="M48 14H16C15.4696 14 14.9609 14.2107 14.5858 14.5858C14.2107 14.9609 14 15.4696 14 16V48C14 48.5304 14.2107 49.0391 14.5858 49.4142C14.9609 49.7893 15.4696 50 16 50H48C48.5304 50 49.0391 49.7893 49.4142 49.4142C49.7893 49.0391 50 48.5304 50 48V16C50 15.4696 49.7893 14.9609 49.4142 14.5858C49.0391 14.2107 48.5304 14 48 14V14ZM24.678 44.674H19.334V27.494H24.678V44.674ZM22.006 25.148C21.1849 25.148 20.3974 24.8218 19.8168 24.2412C19.2362 23.6606 18.91 22.8731 18.91 22.052C18.91 21.2309 19.2362 20.4434 19.8168 19.8628C20.3974 19.2822 21.1849 18.956 22.006 18.956C22.8271 18.956 23.6146 19.2822 24.1952 19.8628C24.7758 20.4434 25.102 21.2309 25.102 22.052C25.102 22.8731 24.7758 23.6606 24.1952 24.2412C23.6146 24.8218 22.8271 25.148 22.006 25.148V25.148ZM44.676 44.674H39.338V36.32C39.338 34.328 39.302 31.766 36.562 31.766C33.782 31.766 33.36 33.938 33.36 36.18V44.676H28.026V27.496H33.146V29.844H33.22C33.93 28.494 35.674 27.07 38.268 27.07C43.676 27.07 44.674 30.626 44.674 35.254V44.674H44.676Z" fill="#F5F5F5"/>
</svg>
