<svg width="64" height="64" viewBox="0 0 64 64" fill="none" xmlns="http://www.w3.org/2000/svg">
<rect width="64" height="64" rx="4" fill="#555555"/>
<path d="M32.0001 51.9701C31.4501 51.9701 30.9361 51.8221 30.4561 51.5661L25.5781 48.6701C24.8481 48.2641 25.2141 48.1161 25.4341 48.0421C26.4261 47.7121 26.6101 47.6401 27.6361 47.0561C27.7481 46.9821 27.8941 47.0161 28.0061 47.0901L31.7461 49.3301C31.8941 49.4021 32.0781 49.4021 32.1881 49.3301L46.8261 40.8561C46.9741 40.7841 47.0461 40.6361 47.0461 40.4521V23.5361C47.0461 23.3541 46.9741 23.2061 46.8261 23.1341L32.1881 14.6961C32.0421 14.6221 31.8581 14.6221 31.7461 14.6961L17.1041 23.1321C16.9581 23.2041 16.8841 23.3901 16.8841 23.5341V40.4481C16.8841 40.5941 16.9581 40.7801 17.1041 40.8521L21.1041 43.1661C23.2681 44.2621 24.6281 42.9761 24.6281 41.6961V25.0041C24.6281 24.7841 24.8101 24.5621 25.0681 24.5621H26.9401C27.1561 24.5621 27.3801 24.7461 27.3801 25.0041V41.6981C27.3801 44.5961 25.8041 46.2861 23.0521 46.2861C22.2081 46.2861 21.5481 46.2861 19.6761 45.3661L15.8261 43.1681C15.357 42.8954 14.9677 42.5044 14.6971 42.0341C14.4265 41.5638 14.2841 41.0307 14.2841 40.4881V23.5721C14.2841 22.4721 14.8701 21.4441 15.8261 20.8941L30.4581 12.4201C30.9331 12.1661 31.4634 12.0332 32.0021 12.0332C32.5407 12.0332 33.0711 12.1661 33.5461 12.4201L48.1801 20.8941C49.1381 21.4421 49.7221 22.4721 49.7221 23.5721V40.4881C49.7221 41.5861 49.1361 42.6141 48.1801 43.1681L33.5461 51.6401C33.0641 51.8601 32.5141 51.9701 32.0001 51.9701V51.9701ZM36.5121 40.3381C30.0921 40.3381 28.7721 37.4021 28.7721 34.9101C28.7721 34.6901 28.9561 34.4681 29.2121 34.4681H31.1201C31.3401 34.4681 31.5221 34.6141 31.5221 34.8361C31.8161 36.7781 32.6581 37.7341 36.5501 37.7341C39.6301 37.7341 40.9541 37.0341 40.9541 35.3841C40.9541 34.4301 40.5841 33.7341 35.7801 33.2581C31.7821 32.8581 29.2881 31.9721 29.2881 28.7821C29.2881 25.8121 31.7821 24.0501 35.9661 24.0501C40.6601 24.0501 42.9721 25.6681 43.2641 29.1861C43.2606 29.3049 43.2215 29.4198 43.1521 29.5161C43.0781 29.5881 42.9701 29.6621 42.8601 29.6621H40.9541C40.8598 29.6601 40.769 29.6268 40.6958 29.5674C40.6227 29.508 40.5714 29.4259 40.5501 29.3341C40.1081 27.3101 38.9721 26.6541 35.9661 26.6541C32.5881 26.6541 32.1841 27.8281 32.1841 28.7081C32.1841 29.7701 32.6581 30.1001 37.2121 30.6881C41.7241 31.2741 43.8521 32.1181 43.8521 35.2761C43.8121 38.5061 41.1741 40.3381 36.5121 40.3381V40.3381Z" fill="#F5F5F5"/>
</svg>
