<svg width="64" height="64" viewBox="0 0 64 64" fill="none" xmlns="http://www.w3.org/2000/svg">
<rect width="64" height="64" rx="4" fill="#555555"/>
<path d="M31.98 12C20.944 12 12 20.946 12 31.98C12 40.444 17.266 47.68 24.7 50.592C24.524 49.012 24.368 46.58 24.768 44.856C25.132 43.296 27.112 34.924 27.112 34.924C27.112 34.924 26.514 33.726 26.514 31.956C26.514 29.18 28.124 27.106 30.13 27.106C31.836 27.106 32.658 28.386 32.658 29.92C32.658 31.636 31.566 34.198 31.004 36.574C30.534 38.562 32.002 40.184 33.962 40.184C37.512 40.184 40.244 36.44 40.244 31.034C40.244 26.25 36.806 22.906 31.898 22.906C26.212 22.906 22.874 27.17 22.874 31.576C22.874 33.292 23.536 35.134 24.362 36.136C24.4322 36.2115 24.4818 36.3037 24.5059 36.4039C24.5301 36.5041 24.5281 36.6088 24.5 36.708C24.348 37.338 24.01 38.696 23.946 38.974C23.858 39.34 23.656 39.418 23.276 39.242C20.782 38.08 19.222 34.432 19.222 31.5C19.222 25.198 23.8 19.41 32.424 19.41C39.356 19.41 44.742 24.348 44.742 30.95C44.742 37.838 40.4 43.376 34.374 43.376C32.348 43.376 30.446 42.326 29.794 41.084L28.548 45.832C28.098 47.568 26.88 49.744 26.066 51.072C27.9822 51.6636 29.9765 51.9636 31.982 51.962C43.016 51.962 51.962 43.016 51.962 31.982C51.962 20.948 43.014 12 31.98 12Z" fill="#F5F5F5"/>
</svg>
