<svg width="64" height="64" viewBox="0 0 64 64" fill="none" xmlns="http://www.w3.org/2000/svg">
<rect width="64" height="64" rx="4" fill="#555555"/>
<path d="M32.0001 34.0599C33.9717 34.0599 35.5701 32.4616 35.5701 30.4899C35.5701 28.5183 33.9717 26.9199 32.0001 26.9199C30.0284 26.9199 28.4301 28.5183 28.4301 30.4899C28.4301 32.4616 30.0284 34.0599 32.0001 34.0599Z" fill="#F5F5F5"/>
<path d="M22.004 37.588L21.214 37.386C15.346 35.904 11.98 33.384 11.98 30.482C11.98 27.578 15.348 25.06 21.214 23.578L22.004 23.378L22.226 24.16C22.8191 26.2074 23.5789 28.2027 24.498 30.126L24.668 30.482L24.498 30.838C23.578 32.764 22.816 34.76 22.226 36.808L22.004 37.588V37.588ZM20.85 25.398C16.392 26.654 13.654 28.57 13.654 30.482C13.654 32.39 16.39 34.308 20.85 35.562C21.396 33.826 22.056 32.128 22.82 30.482C22.0504 28.8332 21.3923 27.1348 20.85 25.398V25.398ZM41.994 37.588L41.774 36.804C41.1793 34.7562 40.4188 32.7602 39.5 30.836L39.33 30.482L39.5 30.124C40.42 28.202 41.178 26.204 41.774 24.156L41.994 23.376L42.784 23.576C48.654 25.058 52.018 27.576 52.018 30.482C52.018 33.386 48.652 35.904 42.784 37.386L41.994 37.588V37.588ZM41.174 30.482C41.974 32.214 42.64 33.918 43.148 35.562C47.608 34.308 50.346 32.39 50.346 30.482C50.346 28.57 47.61 26.656 43.148 25.398C42.6025 27.1342 41.9431 28.8326 41.174 30.482V30.482Z" fill="#F5F5F5"/>
<path d="M20.838 25.39L20.618 24.61C18.966 18.794 19.466 14.628 21.992 13.176C24.462 11.746 28.436 13.436 32.598 17.706L33.166 18.29L32.598 18.872C31.1198 20.4094 29.7687 22.0641 28.558 23.82L28.332 24.144L27.94 24.176C25.8112 24.3432 23.6996 24.6837 21.626 25.194L20.838 25.39V25.39ZM24.002 14.332C23.554 14.332 23.158 14.43 22.824 14.622C21.168 15.576 20.876 18.898 22.016 23.382C23.798 22.988 25.596 22.706 27.408 22.548C28.4571 21.0601 29.6015 19.6418 30.834 18.302C28.228 15.768 25.768 14.332 24.002 14.332V14.332ZM39.996 48.3C37.62 48.3 34.568 46.508 31.4 43.256L30.834 42.674L31.4 42.094C32.8785 40.5542 34.2303 38.8974 35.442 37.14L35.666 36.82L36.054 36.782C38.1836 36.6178 40.2961 36.2786 42.37 35.768L43.16 35.568L43.382 36.35C45.026 42.162 44.528 46.334 42.006 47.786C41.3937 48.1331 40.6998 48.3105 39.996 48.3V48.3ZM33.166 42.66C35.77 45.194 38.232 46.632 39.996 46.632C40.446 46.632 40.842 46.532 41.174 46.342C42.832 45.386 43.126 42.058 41.982 37.574C40.202 37.97 38.402 38.254 36.586 38.412C35.5415 39.9022 34.3989 41.3214 33.166 42.66V42.66Z" fill="#F5F5F5"/>
<path d="M43.16 25.3899L42.37 25.1919C40.2962 24.68 38.1837 24.3395 36.054 24.1739L35.666 24.1399L35.442 23.8159C34.2319 22.0591 32.8801 20.4042 31.4 18.8679L30.834 18.2859L31.4 17.7059C35.56 13.4379 39.532 11.7479 42.006 13.1759C44.53 14.6299 45.032 18.7959 43.382 24.6099L43.16 25.3899ZM36.586 22.5479C38.494 22.7179 40.302 23.0039 41.982 23.3819C43.124 18.8979 42.832 15.5759 41.174 14.6199C39.526 13.6659 36.424 15.1259 33.166 18.3019C34.398 19.6419 35.542 21.0579 36.586 22.5479ZM24.002 48.2999C23.2983 48.3099 22.6045 48.1325 21.992 47.7859C19.466 46.3339 18.966 42.1639 20.616 36.3499L20.832 35.5679L21.622 35.7679C23.55 36.2539 25.674 36.5959 27.938 36.7819L28.326 36.8199L28.552 37.1399C29.76 38.8959 31.112 40.5539 32.592 42.0939L33.16 42.6739L32.592 43.2559C29.426 46.5099 26.374 48.2999 24.002 48.2999V48.2999ZM22.016 37.5759C20.876 42.0599 21.168 45.3879 22.824 46.3439C24.474 47.2839 27.566 45.8339 30.834 42.6599C29.6019 41.3197 28.4575 39.9014 27.408 38.4139C25.5942 38.2535 23.793 37.9736 22.016 37.5759V37.5759Z" fill="#F5F5F5"/>
<path d="M31.9999 38.6259C30.6259 38.6259 29.2159 38.5679 27.7999 38.4499L27.4079 38.4159L27.1819 38.0919C26.3835 36.9437 25.6322 35.7634 24.9299 34.5539C24.2329 33.3412 23.5851 32.1008 22.9879 30.8359L22.8199 30.4819L22.9879 30.1239C23.5859 28.8599 24.2319 27.6199 24.9299 26.4079C25.6239 25.2159 26.3819 24.0239 27.1819 22.8679L27.4079 22.5479L27.7999 22.5119C30.5937 22.2779 33.4022 22.2779 36.1959 22.5119L36.5839 22.5499L36.8099 22.8699C38.4095 25.1674 39.8144 27.5945 41.0099 30.1259L41.1759 30.4839L41.0099 30.8379C39.8177 33.371 38.4127 35.7984 36.8099 38.0939L36.5839 38.4179L36.1959 38.4519C34.7839 38.5659 33.3719 38.6259 31.9999 38.6259V38.6259ZM28.3319 36.8179C30.8019 37.0039 33.1979 37.0039 35.6659 36.8179C37.0437 34.8003 38.2685 32.6824 39.3299 30.4819C38.2722 28.2794 37.0473 26.1612 35.6659 24.1459C33.2249 23.9579 30.773 23.9579 28.3319 24.1459C26.9494 26.1605 25.7245 28.2788 24.6679 30.4819C25.7317 32.6812 26.9564 34.799 28.3319 36.8179V36.8179Z" fill="#F5F5F5"/>
</svg>
