<svg width="64" height="64" viewBox="0 0 64 64" fill="none" xmlns="http://www.w3.org/2000/svg">
<rect width="64" height="64" rx="4" fill="#555555"/>
<path d="M47.266 23.9941C47.292 24.3441 47.292 24.6921 47.292 25.0401C47.292 35.6901 39.186 47.9621 24.372 47.9621C19.808 47.9621 15.568 46.6401 12 44.3441C12.648 44.4181 13.272 44.4441 13.946 44.4441C17.572 44.4528 21.0953 43.2404 23.948 41.0021C22.2668 40.9717 20.6372 40.417 19.2865 39.4156C17.9358 38.4141 16.9316 37.0159 16.414 35.4161C16.912 35.4901 17.412 35.5401 17.936 35.5401C18.658 35.5401 19.384 35.4401 20.058 35.2661C18.2335 34.8977 16.5929 33.9088 15.4152 32.4675C14.2375 31.0261 13.5954 29.2214 13.598 27.3601V27.2601C14.672 27.8581 15.918 28.2321 17.238 28.2821C16.1322 27.5473 15.2254 26.5501 14.5987 25.3797C13.9719 24.2092 13.6446 22.9018 13.646 21.5741C13.646 20.0781 14.044 18.7061 14.742 17.5101C16.7663 20.0001 19.291 22.0372 22.1527 23.4894C25.0143 24.9416 28.1491 25.7765 31.354 25.9401C31.23 25.3401 31.154 24.7181 31.154 24.0941C31.1535 23.036 31.3615 21.9882 31.7662 21.0106C32.1708 20.0329 32.7642 19.1446 33.5124 18.3965C34.2605 17.6483 35.1488 17.0549 36.1265 16.6502C37.1041 16.2456 38.1519 16.0376 39.21 16.0381C41.53 16.0381 43.624 17.0101 45.096 18.5821C46.8995 18.2333 48.6291 17.5749 50.208 16.6361C49.6068 18.4977 48.3475 20.0763 46.666 21.0761C48.2656 20.8936 49.8289 20.473 51.304 19.8281C50.2023 21.4343 48.837 22.8428 47.266 23.9941V23.9941Z" fill="#F5F5F5"/>
</svg>
