<svg width="64" height="64" viewBox="0 0 64 64" fill="none" xmlns="http://www.w3.org/2000/svg">
<rect width="64" height="64" rx="4" fill="#555555"/>
<path fill-rule="evenodd" clip-rule="evenodd" d="M44.776 19.1498C43.1127 17.4756 41.1337 16.1481 38.9537 15.2441C36.7737 14.3402 34.436 13.8778 32.076 13.8838C22.18 13.8838 14.124 21.9378 14.12 31.8378C14.12 35.0018 14.946 38.0898 16.516 40.8138L13.97 50.1158L23.488 47.6178C26.1208 49.051 29.0704 49.8025 32.068 49.8038H32.076C41.97 49.8038 50.026 41.7498 50.03 31.8498C50.0368 29.4908 49.5759 27.1538 48.6741 24.974C47.7723 22.7941 46.4474 20.8146 44.776 19.1498V19.1498ZM32.076 46.7738H32.07C29.397 46.7741 26.7732 46.055 24.474 44.6918L23.93 44.3678L18.282 45.8498L19.788 40.3438L19.434 39.7798C17.9395 37.4007 17.1484 34.6474 17.152 31.8378C17.156 23.6098 23.85 16.9158 32.082 16.9158C34.0425 16.9115 35.9844 17.296 37.7953 18.0471C39.6062 18.7983 41.2501 19.9011 42.632 21.2918C44.0212 22.6759 45.1224 24.3216 45.8717 26.1338C46.6211 27.946 47.0039 29.8888 46.998 31.8498C46.994 40.0778 40.3 46.7738 32.076 46.7738ZM40.262 35.5958C39.812 35.3698 37.608 34.2858 37.196 34.1358C36.786 33.9858 36.488 33.9118 36.188 34.3598C35.888 34.8078 35.028 35.8178 34.766 36.1178C34.504 36.4178 34.242 36.4538 33.794 36.2298C33.346 36.0058 31.9 35.5318 30.186 34.0038C28.852 32.8138 27.952 31.3458 27.69 30.8958C27.428 30.4458 27.662 30.2038 27.888 29.9798C28.09 29.7798 28.336 29.4558 28.56 29.1938C28.784 28.9318 28.858 28.7458 29.008 28.4458C29.158 28.1458 29.084 27.8838 28.97 27.6598C28.858 27.4338 27.96 25.2258 27.586 24.3278C27.224 23.4578 26.854 23.5738 26.578 23.5618C26.2921 23.5502 26.0061 23.5448 25.72 23.5458C25.4925 23.5516 25.2686 23.6044 25.0625 23.7007C24.8563 23.7971 24.6723 23.935 24.522 24.1058C24.11 24.5558 22.952 25.6398 22.952 27.8478C22.952 30.0558 24.56 32.1898 24.784 32.4898C25.008 32.7898 27.948 37.3198 32.448 39.2638C33.52 39.7258 34.356 40.0018 35.006 40.2098C36.08 40.5518 37.058 40.5018 37.832 40.3878C38.694 40.2598 40.486 39.3038 40.86 38.2558C41.234 37.2078 41.234 36.3098 41.122 36.1218C41.01 35.9338 40.708 35.8198 40.262 35.5958" fill="#F5F5F5"/>
</svg>
